<svg id="_1zewbG.tif" data-name="1zewbG.tif" xmlns="http://www.w3.org/2000/svg" width="48.303" height="48.303" viewBox="0 0 48.303 48.303">
  <g id="Group_77" data-name="Group 77" transform="translate(0 0)">
    <path id="Path_10745" data-name="Path 10745" d="M-637.837-554.343v.609q0,3.333,0,6.667c0,.174.005.348-.007.521a.772.772,0,0,1-.779.8.793.793,0,0,1-.857-.782c-.014-.173-.009-.347-.009-.521q0-3.359,0-6.719c0-.2-.018-.4-.033-.716-.223.2-.352.306-.47.424q-1.384,1.379-2.764,2.76c-.111.11-.217.226-.338.325a.837.837,0,0,1-1.136,0,.834.834,0,0,1-.037-1.135,4.086,4.086,0,0,1,.323-.339c1.35-1.351,2.694-2.707,4.055-4.047a1.2,1.2,0,0,0,.4-.965c-.021-.485,0-.972-.007-1.458,0-.147-.027-.294-.052-.546-.2.179-.329.284-.446.4q-1.4,1.4-2.8,2.8a3.774,3.774,0,0,1-.341.321.831.831,0,0,1-1.1-.027.832.832,0,0,1-.043-1.134,4.531,4.531,0,0,1,.359-.377c1.338-1.339,2.67-2.683,4.018-4.01a1.239,1.239,0,0,0,.409-.963c-.015-1.545,0-3.09-.008-4.635,0-.181-.03-.361-.058-.672-.223.2-.352.3-.468.414q-4.016,4.013-8.034,8.024a1.321,1.321,0,0,0-.419,1.015c.011,1.875,0,3.75,0,5.625,0,.174.005.348-.011.521a.779.779,0,0,1-.766.767.84.84,0,0,1-.829-.719,3.552,3.552,0,0,1-.017-.52q0-1.979,0-3.958c0-.152-.02-.3-.031-.476-.254,0-.351.182-.476.306q-1.865,1.855-3.723,3.717a2.652,2.652,0,0,1-.388.345.79.79,0,0,1-1.045-.1.792.792,0,0,1-.1-1.046,2.717,2.717,0,0,1,.345-.388q1.839-1.844,3.681-3.685c.13-.13.251-.269.467-.5-.307-.018-.487-.038-.667-.038-1.319,0-2.639,0-3.958,0a2.6,2.6,0,0,1-.518-.03.837.837,0,0,1-.658-.827.771.771,0,0,1,.726-.75,5.227,5.227,0,0,1,.572-.015c1.858,0,3.716-.01,5.573.006a1.354,1.354,0,0,0,1.06-.425q3.981-4.011,7.985-8c.12-.12.229-.252.389-.43a1.376,1.376,0,0,0-.359-.123c-1.7-.007-3.4,0-5.1-.008a.981.981,0,0,0-.714.371q-2.04,2.048-4.087,4.089a3.37,3.37,0,0,1-.382.353.824.824,0,0,1-1.092-.084.827.827,0,0,1-.049-1.055,3.436,3.436,0,0,1,.353-.382q1.379-1.383,2.76-2.764c.121-.121.233-.25.4-.428a1.738,1.738,0,0,0-.365-.1c-.555-.009-1.111.007-1.667-.009a1.11,1.11,0,0,0-.872.373c-1.354,1.371-2.721,2.73-4.085,4.091a3.4,3.4,0,0,1-.382.353.824.824,0,0,1-1.092-.083.825.825,0,0,1-.05-1.054,3.421,3.421,0,0,1,.353-.382q1.379-1.383,2.76-2.764c.121-.121.233-.25.363-.39-.16-.2-.363-.138-.537-.138-1.823-.005-3.646,0-5.469,0-.625,0-1.251.014-1.875-.014a.768.768,0,0,1-.767-.91.744.744,0,0,1,.651-.7,3.859,3.859,0,0,1,.572-.024q3.385,0,6.771,0h.607l.049-.118c-.107-.123-.206-.253-.321-.368q-1.378-1.384-2.761-2.763c-.11-.111-.226-.217-.326-.337a.84.84,0,0,1,.006-1.174.835.835,0,0,1,1.135,0c.12.1.227.214.338.325,1.339,1.338,2.684,2.669,4.01,4.019a1.243,1.243,0,0,0,1.011.419c.468-.022.937,0,1.406-.006.151,0,.3-.022.565-.042-.168-.2-.268-.325-.382-.44q-1.415-1.421-2.834-2.838a2.874,2.874,0,0,1-.347-.386.821.821,0,0,1,.1-1.05.823.823,0,0,1,1.053-.066,3.239,3.239,0,0,1,.383.352c1.352,1.349,2.709,2.693,4.047,4.055a1.294,1.294,0,0,0,1.01.423c1.528-.015,3.056,0,4.583-.008.183,0,.367-.025.629-.044a2.358,2.358,0,0,0-.229-.356q-4.121-4.129-8.244-8.255a1.158,1.158,0,0,0-.9-.322q-2.813.007-5.625,0a5.4,5.4,0,0,1-.572-.015.77.77,0,0,1-.733-.744.837.837,0,0,1,.649-.834,2.511,2.511,0,0,1,.518-.031c1.319,0,2.639,0,3.958,0,.182,0,.365-.018.671-.035-.208-.228-.327-.368-.457-.5q-1.821-1.825-3.645-3.647c-.1-.1-.2-.193-.29-.3a.814.814,0,0,1-.008-1.172.81.81,0,0,1,1.17-.023c.12.1.227.215.337.325q1.805,1.8,3.61,3.608c.132.132.271.256.423.4a.6.6,0,0,0,.129-.518c0-1.337,0-2.674,0-4.011a3.244,3.244,0,0,1,.016-.468.843.843,0,0,1,.821-.728.78.78,0,0,1,.774.759c.017.172.012.347.012.52,0,1.84.012,3.681-.007,5.521a1.532,1.532,0,0,0,.489,1.2q3.976,3.942,7.925,7.911c.129.129.27.245.5.451.033-.284.068-.446.068-.608,0-1.58,0-3.16.006-4.74a1.136,1.136,0,0,0-.365-.876c-1.359-1.341-2.7-2.7-4.055-4.048-.11-.111-.226-.217-.326-.336a.84.84,0,0,1,0-1.174.846.846,0,0,1,1.175.031c.1.091.2.193.3.291q1.381,1.381,2.763,2.761c.118.117.247.223.407.367a1.025,1.025,0,0,0,.086-.244c.005-.66,0-1.319.006-1.979a.924.924,0,0,0-.358-.665q-2.029-2.023-4.052-4.051a4.781,4.781,0,0,1-.36-.376.831.831,0,0,1,.033-1.134.834.834,0,0,1,1.135-.005c.12.1.227.214.338.325q1.382,1.38,2.763,2.761c.118.117.246.223.471.425.015-.32.033-.517.033-.715q0-3.359,0-6.719c0-.173-.005-.348.009-.521a.769.769,0,0,1,.8-.785.772.772,0,0,1,.839.8c.013.173.008.347.008.521q0,3.333,0,6.667v.635c.288-.005.385-.189.511-.313.949-.941,1.892-1.889,2.84-2.832a2.466,2.466,0,0,1,.391-.341.819.819,0,0,1,1.008.108.816.816,0,0,1,.108,1.007,2.778,2.778,0,0,1-.377.429c-1.349,1.352-2.692,2.71-4.056,4.046a1.3,1.3,0,0,0-.431,1.059c.024.6.006,1.206.006,1.821.275.032.359-.147.472-.259.949-.941,1.893-1.888,2.839-2.833a3.092,3.092,0,0,1,.384-.35.823.823,0,0,1,1.052.077.822.822,0,0,1,.085,1.051,2.972,2.972,0,0,1-.349.385c-1.349,1.352-2.694,2.708-4.055,4.047a1.294,1.294,0,0,0-.434,1.005c.017,1.545.006,3.09.008,4.635,0,.169.024.337.043.6a3.067,3.067,0,0,0,.382-.261c.41-.4.813-.808,1.218-1.213,2.271-2.271,4.534-4.55,6.821-6.806a1.622,1.622,0,0,0,.521-1.284c-.024-1.823-.01-3.646-.009-5.469,0-.173-.005-.348.012-.52a.779.779,0,0,1,.776-.757.842.842,0,0,1,.819.731,3.743,3.743,0,0,1,.017.52q0,1.927,0,3.854v.556l.116.054c.135-.119.276-.231.4-.357q1.844-1.839,3.685-3.681a3.1,3.1,0,0,1,.383-.351.8.8,0,0,1,1.087.093.8.8,0,0,1,.077,1.048,2.883,2.883,0,0,1-.348.386q-1.839,1.843-3.681,3.685c-.129.129-.247.271-.451.5.307.016.49.034.673.034,1.32,0,2.639,0,3.958,0a2.476,2.476,0,0,1,.518.031.835.835,0,0,1,.647.835.769.769,0,0,1-.735.741,4.845,4.845,0,0,1-.52.014c-1.858,0-3.715.011-5.573-.006a1.48,1.48,0,0,0-1.151.473q-3.944,3.974-7.912,7.924c-.132.132-.253.274-.441.479a2.506,2.506,0,0,0,.455.1c1.667.006,3.333,0,5,.007a1.034,1.034,0,0,0,.761-.385q2.02-2.031,4.05-4.053a4.117,4.117,0,0,1,.378-.357.828.828,0,0,1,1.095.036.824.824,0,0,1,.065,1.093,3.221,3.221,0,0,1-.318.343q-1.38,1.383-2.761,2.763c-.132.132-.259.271-.437.457a1.664,1.664,0,0,0,.341.093c.608.007,1.215,0,1.823.007a1.017,1.017,0,0,0,.762-.382q1.983-1.995,3.976-3.979c.1-.1.194-.2.3-.294a.873.873,0,0,1,1.251-.1.877.877,0,0,1-.1,1.289c-.083.088-.171.173-.257.259q-1.344,1.344-2.687,2.69c-.12.12-.231.25-.365.394.2.186.42.124.614.124q3.333.007,6.667,0c.174,0,.347,0,.521,0a.8.8,0,0,1,.859.836c0,.5-.309.782-.882.808-.156.007-.312,0-.469,0q-3.333,0-6.667,0c-.2,0-.4.017-.719.032.2.222.3.351.421.468q1.416,1.42,2.834,2.838a2.6,2.6,0,0,1,.343.389.82.82,0,0,1-.089,1.01.818.818,0,0,1-1.049.1,3.217,3.217,0,0,1-.424-.383c-1.352-1.349-2.708-2.694-4.047-4.055a1.2,1.2,0,0,0-.965-.4c-.485.021-.972,0-1.458.007-.147,0-.294.026-.547.051.179.2.283.329.4.446q1.416,1.42,2.834,2.838a2.642,2.642,0,0,1,.344.389.82.82,0,0,1-.085,1.01.817.817,0,0,1-1.049.1,3.148,3.148,0,0,1-.424-.383c-1.352-1.349-2.708-2.694-4.048-4.055a1.24,1.24,0,0,0-.964-.407c-1.545.014-3.09,0-4.636.008-.181,0-.361.03-.673.058.2.223.3.352.414.468q4.031,4.035,8.06,8.072a1.247,1.247,0,0,0,.972.385c1.875-.012,3.75-.006,5.625,0,.174,0,.348-.005.521.01a.78.78,0,0,1,.774.759.84.84,0,0,1-.763.841,3.909,3.909,0,0,1-.468.013h-4.436c-.013.285.175.38.3.5q1.854,1.865,3.717,3.723a2.687,2.687,0,0,1,.345.388.8.8,0,0,1-.1,1.046.8.8,0,0,1-1.046.1,2.684,2.684,0,0,1-.388-.345q-1.844-1.839-3.684-3.681c-.131-.131-.27-.253-.5-.47-.018.305-.038.485-.038.665,0,1.3,0,2.6,0,3.906a3.411,3.411,0,0,1-.019.52.838.838,0,0,1-.834.713.778.778,0,0,1-.76-.773c-.015-.172-.01-.347-.01-.52,0-1.84-.013-3.681.008-5.521a1.531,1.531,0,0,0-.5-1.192q-3.957-3.925-7.888-7.875c-.132-.132-.274-.255-.464-.432a1.406,1.406,0,0,0-.125.365c-.007,1.7,0,3.4-.008,5.1a.981.981,0,0,0,.369.715q2.048,2.04,4.089,4.088a3.508,3.508,0,0,1,.354.381.823.823,0,0,1-.047,1.054.823.823,0,0,1-1.091.085,3.4,3.4,0,0,1-.382-.353q-1.383-1.379-2.764-2.76c-.121-.121-.25-.233-.419-.39a1.216,1.216,0,0,0-.1.307c-.008.612,0,1.225-.008,1.837a1.019,1.019,0,0,0,.381.763q2.05,2.038,4.089,4.087a3.269,3.269,0,0,1,.352.382.82.82,0,0,1-.066,1.053.82.82,0,0,1-1.05.1,2.878,2.878,0,0,1-.386-.347q-1.384-1.379-2.764-2.76c-.132-.132-.27-.259-.406-.388Z" transform="translate(662.817 594.046)" fill="#dd482c"/>
  </g>
</svg>